<svg xmlns="http://www.w3.org/2000/svg" viewBox="0 0 24 24" width="512" height="512">
  <defs>
    <linearGradient id="medGrad" x1="0%" y1="0%" x2="100%" y2="100%">
      <stop offset="0%" stop-color="#2196F3" />
      <stop offset="100%" stop-color="#0D47A1" />
    </linearGradient>
  </defs>
  <!-- Background Rounded Rect -->
  <rect width="24" height="24" rx="5" fill="url(#medGrad)" />
  <!-- Medical Cross -->
  <path d="M11 6h2v5h5v2h-5v5h-2v-5H6v-2h5V6z" fill="#ffffff" />
  <!-- Healing Heart Outline overlay -->
  <path d="M12 21.35l-1.45-1.32C5.4 15.36 2 12.28 2 8.5 2 5.42 4.42 3 7.5 3c1.74 0 3.41.81 4.5 2.09C13.09 3.81 14.76 3 16.5 3 19.58 3 22 5.42 22 8.5c0 3.78-3.4 6.86-8.55 11.54L12 21.35z" fill="none" stroke="#ffffff" stroke-width="1.5" stroke-opacity="0.2" />
</svg>
